<?xml version="1.0" encoding="UTF-8" standalone="no"?>
<!DOCTYPE svg PUBLIC "-//W3C//DTD SVG 1.1//EN" "http://www.w3.org/Graphics/SVG/1.1/DTD/svg11.dtd">
<svg width="100%" height="100%" viewBox="0 0 1182 1182" version="1.1" xmlns="http://www.w3.org/2000/svg" xmlns:xlink="http://www.w3.org/1999/xlink" xml:space="preserve" xmlns:serif="http://www.serif.com/" style="fill-rule:evenodd;clip-rule:evenodd;stroke-linecap:round;stroke-linejoin:round;stroke-miterlimit:1.5;">
    <g transform="matrix(0.98683,0,0,1.12773,-24.9025,-191.321)">
        <path d="M1181.1,340.776C1181.1,266.13 1111.85,205.526 1026.54,205.526L220.794,205.526C135.489,205.526 66.232,266.13 66.232,340.776L66.232,1045.85C66.232,1120.5 135.489,1181.1 220.794,1181.1L1026.54,1181.1C1111.85,1181.1 1181.1,1120.5 1181.1,1045.85L1181.1,340.776ZM1126.21,340.776L1126.21,1045.85C1126.21,1093.99 1081.55,1133.07 1026.54,1133.07C1026.54,1133.07 220.794,1133.07 220.794,1133.07C165.783,1133.07 121.121,1093.99 121.121,1045.85L121.121,340.776C121.121,292.639 165.783,253.557 220.794,253.557L1026.54,253.557C1081.55,253.557 1126.21,292.639 1126.21,340.776Z" style="fill:white;"/>
    </g>
    <g transform="matrix(0.759521,0,0,0.867966,116.863,-11.2218)">
        <path d="M1181.1,303.459C1181.1,249.408 1130.95,205.526 1069.19,205.526L178.148,205.526C116.38,205.526 66.232,249.408 66.232,303.459L66.232,1083.17C66.232,1137.22 116.38,1181.1 178.148,1181.1L1069.19,1181.1C1130.95,1181.1 1181.1,1137.22 1181.1,1083.17L1181.1,303.459ZM1137.21,303.459L1137.21,1083.17C1137.21,1116.02 1106.73,1142.7 1069.19,1142.7L178.148,1142.7C140.602,1142.7 110.119,1116.02 110.119,1083.17C110.119,1083.17 110.119,303.459 110.119,303.459C110.119,270.604 140.602,243.93 178.148,243.93C178.148,243.93 1069.19,243.93 1069.19,243.93C1106.73,243.93 1137.21,270.604 1137.21,303.459Z" style="fill:white;"/>
    </g>
    <g transform="matrix(0.931493,0,0,0.931493,78.0702,40.457)">
        <g transform="matrix(1,0,0,1,-14.3413,-88.7737)">
            <path d="M441.953,565.192C504.945,565.192 556.086,616.333 556.086,679.325C556.086,742.317 504.945,793.458 441.953,793.458C378.961,793.458 327.82,742.317 327.82,679.325C327.82,616.333 378.961,565.192 441.953,565.192ZM441.953,607.686C481.491,607.686 513.592,639.786 513.592,679.325C513.592,718.863 481.491,750.963 441.953,750.963C402.415,750.963 370.315,718.863 370.315,679.325C370.315,639.786 402.415,607.686 441.953,607.686Z" style="fill:white;"/>
        </g>
        <g transform="matrix(1,0,0,1,-28.3705,63.409)">
            <path d="M706.994,419.284L815.235,527.526L707.761,635" style="fill:none;stroke:white;stroke-width:42.49px;"/>
        </g>
    </g>
</svg>
